<?xml version="1.0" encoding="UTF-8"?>
<svg id="Layer_1" xmlns="http://www.w3.org/2000/svg" version="1.1" viewBox="0 0 72 72">
  <!-- Generator: Adobe Illustrator 29.5.1, SVG Export Plug-In . SVG Version: 2.1.0 Build 141)  -->
  <defs>
    <style>
      .st0 {
        fill: #0a66c2;
      }
    </style>
  </defs>
  <path class="st0" d="M72,72h-14.9v-23.4c0-5.6,0-12.8-7.8-12.8s-9,6.1-9,12.3v23.8h-14.9V23.9h14.3v6.6h.2c1.4-2.5,3.5-4.5,6-5.8s5.3-2,8.1-1.9c15.1,0,17.9,10,17.9,22.9v26.4h0ZM8.6,17.3c-1.7,0-3.4-.5-4.8-1.5-1.4-.9-2.5-2.3-3.2-3.9C-.7,8.7,0,5,2.5,2.5,5,0,8.7-.7,12,.7c1.6.7,2.9,1.8,3.9,3.2,2.3,3.4,1.8,8-1.1,10.9-1.6,1.6-3.8,2.5-6.1,2.5h0ZM16.1,72H1.2V23.9h14.9v48.1h0Z"/>
</svg>